<svg width="68" height="68" viewBox="0 0 68 68" fill="none" xmlns="http://www.w3.org/2000/svg">
<path d="M34.0002 56.6666C37.006 56.6666 39.8886 55.4725 42.014 53.3471C44.1395 51.2217 45.3335 48.339 45.3335 45.3332C45.3335 42.3274 44.1395 39.4448 42.014 37.3194C39.8886 35.1939 37.006 33.9999 34.0002 33.9999C30.9944 33.9999 28.1117 35.1939 25.9863 37.3194C23.8609 39.4448 22.6668 42.3274 22.6668 45.3332C22.6668 48.339 23.8609 51.2217 25.9863 53.3471C28.1117 55.4725 30.9944 56.6666 34.0002 56.6666ZM22.6668 32.6626V16.9999C22.6668 13.9941 23.8609 11.1114 25.9863 8.98602C28.1117 6.86061 30.9944 5.66656 34.0002 5.66656C37.006 5.66656 39.8886 6.86061 42.014 8.98602C44.1395 11.1114 45.3335 13.9941 45.3335 16.9999V19.8332C45.3335 20.5847 45.035 21.3053 44.5036 21.8367C43.9723 22.3681 43.2516 22.6666 42.5002 22.6666C41.7487 22.6666 41.028 22.3681 40.4967 21.8367C39.9653 21.3053 39.6668 20.5847 39.6668 19.8332V16.9999C39.6668 15.497 39.0698 14.0557 38.0071 12.993C36.9444 11.9303 35.5031 11.3332 34.0002 11.3332C32.4973 11.3332 31.0559 11.9303 29.9932 12.993C28.9305 14.0557 28.3335 15.497 28.3335 16.9999V29.2994C32.3136 27.8903 36.6757 28.0128 40.5705 29.643C44.4652 31.2731 47.614 34.2943 49.4039 38.1183C51.1937 41.9424 51.4964 46.2956 50.2532 50.3306C49.0099 54.3656 46.3096 57.7935 42.6779 59.9471C39.0463 62.1007 34.7432 62.8258 30.6063 61.9812C26.4695 61.1366 22.7949 58.7828 20.2981 55.3781C17.8012 51.9733 16.6607 47.7612 17.0985 43.5618C17.5364 39.3624 19.5213 35.4762 22.6668 32.6597V32.6626ZM34.0002 50.9999C32.4973 50.9999 31.0559 50.4029 29.9932 49.3402C28.9305 48.2775 28.3335 46.8361 28.3335 45.3332C28.3335 43.8303 28.9305 42.389 29.9932 41.3263C31.0559 40.2636 32.4973 39.6666 34.0002 39.6666C35.5031 39.6666 36.9444 40.2636 38.0071 41.3263C39.0698 42.389 39.6668 43.8303 39.6668 45.3332C39.6668 46.8361 39.0698 48.2775 38.0071 49.3402C36.9444 50.4029 35.5031 50.9999 34.0002 50.9999Z" fill="#096D00"/>
</svg>
